name C:\Users\antoi\Documents\MyRepositories\upper-imu-dc\Results\main_tracking\Case_79\ABD01_orientations_groundFrame.mot
datacolumns 13
datarows 18
range 4.63000000 4.80000000
endheader 
time	radius_imu_[0][0]	radius_imu_[0][1]	radius_imu_[0][2]	radius_imu_[1][0]	radius_imu_[1][1]	radius_imu_[1][2]	radius_imu_[2][0]	radius_imu_[2][1]	radius_imu_[2][2]	radius_imu_x	radius_imu_y	radius_imu_z	
          4.63000000	          0.95951016	          0.18148335	          0.21541598	         -0.22076104	          0.00953969	          0.97528127	          0.17494231	         -0.98334774	          0.04921788	         -1.52037378	          0.21711779	         -0.18693339	
          4.64000000	          0.95942583	          0.18236742	          0.21504467	         -0.21894385	          0.00127998	          0.97573662	          0.17766732	         -0.98322962	          0.04115627	         -1.52864162	          0.21673757	         -0.18783892	
          4.65000000	          0.95933496	          0.18322302	          0.21472253	         -0.21715162	         -0.00694427	          0.97611319	          0.18033749	         -0.98304685	          0.03312530	         -1.53687343	          0.21640772	         -0.18871691	
          4.66000000	          0.95923720	          0.18405150	          0.21445057	         -0.21538685	         -0.01513133	          0.97641157	          0.18295493	         -0.98280013	          0.02512774	         -1.54506722	          0.21612928	         -0.18956884	
          4.67000000	          0.95913336	          0.18485444	          0.21422425	         -0.21364639	         -0.02327901	          0.97663366	          0.18552200	         -0.98249016	          0.01716581	         -1.55322163	          0.21589757	         -0.19039617	
          4.68000000	          0.95902532	          0.18563346	          0.21403422	         -0.21192225	         -0.03138475	          0.97678245	          0.18804092	         -0.98211772	          0.00924109	         -1.56133586	          0.21570303	         -0.19120019	
          4.69000000	          0.95891576	          0.18639002	          0.21386756	         -0.21020276	         -0.03944574	          0.97686173	          0.19051344	         -0.98168365	          0.00135456	         -1.56940969	          0.21553242	         -0.19198187	
          4.70000000	          0.95880786	          0.18712523	          0.21370924	         -0.20847406	         -0.04745915	          0.97687573	          0.19294056	         -0.98118896	         -0.00649345	         -1.57744339	          0.21537036	         -0.19274172	
          4.71000000	          0.95870502	          0.18783973	          0.21354372	         -0.20672171	         -0.05542235	          0.97682880	          0.19532235	         -0.98063479	         -0.01430314	         -1.58543770	          0.21520093	         -0.19347971	
          4.72000000	          0.95861053	          0.18853350	          0.21335644	         -0.20493219	         -0.06333310	          0.97672499	          0.19765791	         -0.98002247	         -0.02207520	         -1.59339372	          0.21500923	         -0.19419518	
          4.73000000	          0.95852731	          0.18920584	          0.21313503	         -0.20309417	         -0.07118970	          0.97656786	          0.19994536	         -0.97935345	         -0.02981067	         -1.60131281	          0.21478260	         -0.19488683	
          4.74000000	          0.95845775	          0.18985522	          0.21287024	         -0.20119944	         -0.07899107	          0.97636018	          0.20218192	         -0.97862935	         -0.03751084	         -1.60919651	          0.21451160	         -0.19555265	
          4.75000000	          0.95840355	          0.19047924	          0.21255659	         -0.19924356	         -0.08673681	          0.97610385	          0.20436400	         -0.97785192	         -0.04517711	         -1.61704642	          0.21419059	         -0.19618987	
          4.76000000	          0.95836568	          0.19107469	          0.21219258	         -0.19722622	         -0.09442716	          0.97579984	          0.20648739	         -0.97702302	         -0.05281081	         -1.62486411	          0.21381809	         -0.19679506	
          4.77000000	          0.95834435	          0.19163764	          0.21178082	         -0.19515127	         -0.10206288	          0.97544818	          0.20854755	         -0.97614455	         -0.06041306	         -1.63265096	          0.21339675	         -0.19736423	
          4.78000000	          0.95833904	          0.19216363	          0.21132775	         -0.19302655	         -0.10964523	          0.97504804	          0.21053985	         -0.97521847	         -0.06798463	         -1.64040805	          0.21293319	         -0.19789298	
          4.79000000	          0.95834854	          0.19264782	          0.21084327	         -0.19086348	         -0.11717579	          0.97459785	          0.21245988	         -0.97424671	         -0.07552581	         -1.64813609	          0.21243754	         -0.19837673	
          4.80000000	          0.95837107	          0.19308533	          0.21034008	         -0.18867640	         -0.12465637	          0.97409548	          0.21430377	         -0.97323114	         -0.08303642	         -1.65583538	          0.21192281	         -0.19881093	
